<?xml version="1.0" encoding="utf-8"?>
<!-- Generator: Adobe Illustrator 26.0.2, SVG Export Plug-In . SVG Version: 6.00 Build 0)  -->
<svg version="1.1" id="Camada_1" xmlns="http://www.w3.org/2000/svg" xmlns:xlink="http://www.w3.org/1999/xlink" x="0px" y="0px"
	 viewBox="0 0 261.34 64.88" style="enable-background:new 0 0 261.34 64.88;" xml:space="preserve">
<style type="text/css">
	.st0{fill:#9ED1F0;}
	.st1{fill:#155672;}
</style>
<g>
	<g>
		<path class="st0" d="M11,0.31c6.19,0,11.06,3.02,11.06,11.16v15.1c0,8.14-4.86,11.16-11.06,11.16H1.95C0.77,37.72,0,37.01,0,36.24
			V1.79c0-0.77,0.77-1.48,1.95-1.48H11z M4.3,4.2v29.64H11c4.2,0,6.76-2.3,6.76-7.27v-15.1C17.76,6.5,15.2,4.2,11,4.2H4.3z"/>
		<path class="st0" d="M29.89,26.87V11.47c0-8.14,4.81-11.16,11-11.16s11.06,3.02,11.06,11.16v15.41c0,8.14-4.86,11.16-11.06,11.16
			S29.89,35.01,29.89,26.87z M47.65,11.47c0-4.96-2.56-7.27-6.76-7.27s-6.71,2.3-6.71,7.27v15.41c0,4.96,2.51,7.27,6.71,7.27
			s6.76-2.3,6.76-7.27V11.47z"/>
		<path class="st0" d="M70.78,4.2c-4.2,0-6.71,2.3-6.71,7.27v15.41c0,4.96,2.51,7.27,6.71,7.27s6.76-2.3,6.76-7.27v-5.22h-6.09
			c-0.97,0-1.48-0.87-1.48-1.79c0-0.87,0.51-1.79,1.48-1.79h8.91c0.97,0,1.48,0.77,1.48,1.59v7.22c0,8.14-4.86,11.16-11.06,11.16
			c-6.19,0-11-3.02-11-11.16V11.47c0-8.14,4.86-11.16,10.9-11.16c6.71,0,11.16,3.74,11.16,9.16c0,1.64-0.77,2.1-2.15,2.1
			c-1.13,0-2.1-0.41-2.15-1.48C77.13,6.55,75.24,4.2,70.78,4.2z"/>
		<path class="st0" d="M105.28,27.79c0-10.29-16.84-5.63-16.84-18.07c0-7.52,6.19-9.52,11.26-9.52c3.63,0,8.96,1.07,8.96,3.38
			c0,0.82-0.67,2.35-1.84,2.35c-1.18,0-2.66-1.94-7.11-1.94c-3.79,0-6.96,1.38-6.96,5.32c0,8.65,16.84,4.15,16.84,18.07
			c0,7.32-4.71,10.75-11.21,10.75c-6.6,0-10.85-3.58-10.85-5.78c0-1.02,0.92-2.35,1.89-2.35c1.54,0,2.71,4.15,8.75,4.15
			C102.47,34.14,105.28,32.04,105.28,27.79z"/>
		<path class="st1" d="M143.77,27.79c0-10.29-16.84-5.63-16.84-18.07c0-7.52,6.19-9.52,11.26-9.52c3.63,0,8.96,1.07,8.96,3.38
			c0,0.82-0.67,2.35-1.84,2.35c-1.18,0-2.66-1.94-7.11-1.94c-3.79,0-6.96,1.38-6.96,5.32c0,8.65,16.84,4.15,16.84,18.07
			c0,7.32-4.71,10.75-11.21,10.75c-6.6,0-10.85-3.58-10.85-5.78c0-1.02,0.92-2.35,1.89-2.35c1.54,0,2.71,4.15,8.75,4.15
			C140.96,34.14,143.77,32.04,143.77,27.79z"/>
		<path class="st1" d="M154.93,1.79c0-0.77,0.67-1.48,1.74-1.48h9.67c6.04,0,10.85,2.97,10.85,11.06v0.46
			c0,8.04-4.86,11.11-11.06,11.11h-6.91v13.26c0,1.02-1.07,1.54-2.15,1.54c-1.07,0-2.15-0.51-2.15-1.54V1.79z M159.23,4.2v15.15
			h6.91c4.2,0,6.76-2.35,6.76-7.27v-0.61c0-4.96-2.56-7.27-6.76-7.27H159.23z"/>
		<path class="st1" d="M178.88,35.93c0-0.15,0.05-0.26,0.1-0.41l10.44-34.04c0.31-1.02,1.48-1.48,2.66-1.48
			c1.18,0,2.35,0.51,2.66,1.48l10.44,34.04c0,0.15,0.05,0.26,0.05,0.36c0,1.02-1.43,1.84-2.66,1.84c-0.72,0-1.33-0.31-1.54-0.97
			l-2.25-7.63h-13.46l-2.25,7.63c-0.2,0.67-0.82,0.97-1.59,0.97C180.37,37.72,178.88,37.01,178.88,35.93z M197.77,25.59l-5.68-19.25
			l-5.78,19.25H197.77z"/>
		<g>
			<g>
				<path class="st1" d="M254.28,2.17c-0.74-0.76-2.69-2.78-4.73-1.95c-1.36,0.55-1.84,2.02-1.84,3.23l0.04,3.34v20.58
					c0,3.93-2.94,7.13-6.56,7.13c-2.5,0-5.15-3.36-6.17-6.47l-0.13-0.39c2.5-0.78,5.12-3.09,5.12-4.66c0-1.91-2.61-4.04-6.73-4.04
					c-4.12,0-6.73,2.13-6.73,4.04c0,1.57,2.64,3.89,5.16,4.67l-0.12,0.38c-1.02,3.11-3.68,6.47-6.18,6.47
					c-3.62,0-6.56-3.2-6.56-7.13V3.43c0-1.19-0.48-2.66-1.84-3.21c-2.04-0.83-4,1.19-4.73,1.95c-1.66,1.71-7.07,7.69-7.07,12.65
					c0,3.52,2.66,5.57,4.24,6.23c0.91,0.38,1.96-0.05,2.35-0.96c0.39-0.91-0.03-1.97-0.94-2.37c-0.08-0.04-2.03-0.92-2.03-2.89
					c0-2.36,2.37-6.34,6.05-10.13c0.13-0.13,0.25-0.25,0.35-0.35v23.03c0,5.92,4.57,10.74,10.18,10.74c3.16,0,6-2.35,7.89-5.33
					c1.89,2.98,4.73,5.33,7.89,5.33c5.61,0,10.18-4.82,10.18-10.74V6.76l-0.03-2.42c0.1,0.1,0.22,0.21,0.34,0.34
					c3.67,3.8,6.05,7.78,6.05,10.14c0,1.98-1.94,2.86-2.01,2.89c-0.92,0.38-1.36,1.44-0.97,2.37c0.38,0.92,1.44,1.36,2.37,0.97
					c1.57-0.66,4.24-2.71,4.24-6.23C261.34,9.86,255.94,3.88,254.28,2.17z"/>
				<circle class="st1" cx="226.62" cy="9.85" r="2.52"/>
				<circle class="st1" cx="239.92" cy="9.85" r="2.52"/>
			</g>
		</g>
	</g>
	<g>
		<g>
			<path class="st1" d="M50.29,55.16c0,0.96-0.84,1.8-1.82,1.8c-1,0-1.85-0.84-1.85-1.8c0-0.95,0.85-1.78,1.85-1.78
				C49.46,53.38,50.29,54.22,50.29,55.16z"/>
			<path class="st1" d="M61.07,58.32c-0.33,0.16-0.65,0.36-0.65,0.8c0,1.75,5.71-0.05,5.71,3.24c0,1.64-1.4,2.53-3.49,2.53
				c-2.11,0-3.6-0.93-3.6-2.38c0-1.09,0.8-1.71,1.6-2c-0.62-0.2-1.05-0.53-1.05-1.27c0-0.67,0.35-1.02,0.89-1.29
				c-0.6-0.53-0.96-1.34-0.96-2.29v-0.75c0-1.74,1.2-2.98,3.02-2.98c0.87,0,1.62,0.29,2.14,0.82c0.35-0.67,0.89-1.13,1.33-1.13
				c0.33,0,0.47,0.22,0.47,0.42c0,0.22-0.16,0.35-0.33,0.36c-0.29,0.02-0.73,0.2-1.05,0.82c0.33,0.44,0.47,1.05,0.47,1.69v0.75
				c0,1.73-1.25,3.02-3.05,3.02C61.98,58.67,61.49,58.56,61.07,58.32z M61.69,60.72c-0.91,0.27-1.78,0.75-1.78,1.69
				c0,1.04,1.02,1.75,2.73,1.75c1.67,0,2.6-0.69,2.6-1.76C65.23,60.76,62.83,60.87,61.69,60.72z M64.69,54.91
				c0-1.27-0.8-2.24-2.16-2.24c-1.36,0-2.14,0.96-2.14,2.24v0.73c0,1.31,0.8,2.29,2.16,2.29c1.33,0,2.14-0.96,2.14-2.27V54.91z"/>
			<path class="st1" d="M73.03,52.76c-1.24,0-2.45,1-2.45,2.65v4.8c0,0.2-0.2,0.4-0.45,0.4s-0.44-0.2-0.44-0.4V52.4
				c0-0.22,0.18-0.36,0.44-0.36c0.24,0,0.44,0.15,0.44,0.36v0.93c0.4-0.71,1.25-1.4,2.47-1.4h0.65c0.22,0,0.4,0.18,0.4,0.42
				c0,0.24-0.18,0.42-0.4,0.42H73.03z"/>
			<path class="st1" d="M83.22,55.25v2.11c0,1.76-1.56,3.36-3.34,3.36c-1.78,0-3.33-1.58-3.33-3.36v-2.11
				c0-1.78,1.51-3.33,3.33-3.33C81.66,51.93,83.22,53.42,83.22,55.25z M82.33,55.25c0-1.25-1.09-2.49-2.45-2.49
				c-1.36,0-2.44,1.24-2.44,2.49v2.11c0,1.29,1.07,2.53,2.44,2.53c1.34,0,2.45-1.24,2.45-2.53V55.25z"/>
			<path class="st1" d="M93.42,55.25v2.11c0,1.76-1.56,3.36-3.34,3.36c-1.78,0-3.33-1.58-3.33-3.36v-2.11
				c0-1.78,1.51-3.33,3.33-3.33C91.86,51.93,93.42,53.42,93.42,55.25z M92.53,55.25c0-1.25-1.09-2.49-2.45-2.49
				c-1.36,0-2.44,1.24-2.44,2.49v2.11c0,1.29,1.07,2.53,2.44,2.53c1.34,0,2.45-1.24,2.45-2.53V55.25z"/>
			<path class="st1" d="M102.71,55.18c0-1.38-1-2.42-2.22-2.42c-1.15,0-2.31,0.93-2.31,2.49v4.96c0,0.2-0.2,0.4-0.45,0.4
				s-0.44-0.2-0.44-0.4V52.4c0-0.22,0.18-0.36,0.44-0.36c0.24,0,0.44,0.15,0.44,0.36v0.91c0.4-0.71,1.22-1.38,2.44-1.38
				c1.22,0,2.18,0.75,2.65,1.82c0.64-1.24,1.71-1.82,2.76-1.82c1.54,0,3.02,1.2,3.02,3.33v4.96c0,0.2-0.2,0.4-0.45,0.4
				c-0.24,0-0.44-0.2-0.44-0.4v-4.96c0-1.65-1.16-2.49-2.24-2.49c-1.15,0-2.31,0.95-2.31,2.4v5.07c0,0.27-0.22,0.38-0.45,0.38
				c-0.2,0-0.44-0.11-0.44-0.38V55.18z"/>
			<path class="st1" d="M114.28,48.65c0,0.36-0.31,0.67-0.67,0.67c-0.4,0-0.69-0.31-0.69-0.67c0-0.35,0.29-0.64,0.69-0.64
				C113.97,48.02,114.28,48.31,114.28,48.65z M114.06,52.4v7.82c0,0.2-0.2,0.4-0.45,0.4s-0.44-0.2-0.44-0.4V52.4
				c0-0.22,0.18-0.36,0.44-0.36S114.06,52.18,114.06,52.4z"/>
			<path class="st1" d="M119.17,60.21c0,0.2-0.2,0.4-0.45,0.4c-0.25,0-0.44-0.2-0.44-0.4V52.4c0-0.22,0.18-0.36,0.44-0.36
				c0.24,0,0.44,0.15,0.44,0.36v0.91c0.38-0.71,1.22-1.38,2.44-1.38c1.76,0,3.25,1.49,3.25,3.33v4.96c0,0.27-0.24,0.4-0.45,0.4
				c-0.22,0-0.44-0.13-0.44-0.4v-4.96c0-1.25-1.11-2.49-2.44-2.49c-1.16,0-2.34,0.93-2.34,2.49V60.21z"/>
			<path class="st1" d="M130.31,58.32c-0.33,0.16-0.65,0.36-0.65,0.8c0,1.75,5.71-0.05,5.71,3.24c0,1.64-1.4,2.53-3.49,2.53
				c-2.11,0-3.6-0.93-3.6-2.38c0-1.09,0.8-1.71,1.6-2c-0.62-0.2-1.05-0.53-1.05-1.27c0-0.67,0.35-1.02,0.89-1.29
				c-0.6-0.53-0.96-1.34-0.96-2.29v-0.75c0-1.74,1.2-2.98,3.02-2.98c0.87,0,1.62,0.29,2.14,0.82c0.35-0.67,0.89-1.13,1.33-1.13
				c0.33,0,0.47,0.22,0.47,0.42c0,0.22-0.16,0.35-0.33,0.36c-0.29,0.02-0.73,0.2-1.05,0.82c0.33,0.44,0.47,1.05,0.47,1.69v0.75
				c0,1.73-1.25,3.02-3.05,3.02C131.22,58.67,130.73,58.56,130.31,58.32z M130.93,60.72c-0.91,0.27-1.78,0.75-1.78,1.69
				c0,1.04,1.02,1.75,2.73,1.75c1.67,0,2.6-0.69,2.6-1.76C134.47,60.76,132.08,60.87,130.93,60.72z M133.93,54.91
				c0-1.27-0.8-2.24-2.16-2.24c-1.36,0-2.14,0.96-2.14,2.24v0.73c0,1.31,0.8,2.29,2.16,2.29c1.33,0,2.14-0.96,2.14-2.27V54.91z"/>
			<path class="st1" d="M148.56,58.52c0-2.64-4.53-1.18-4.53-4.2c0-1.11,0.8-2.4,2.76-2.4c1.13,0,2.33,0.42,2.33,0.82
				c0,0.16-0.18,0.47-0.4,0.47c-0.25,0-0.82-0.49-1.91-0.49c-1.44,0-1.94,0.91-1.94,1.58c0,2.25,4.54,0.84,4.54,4.16
				c0,1.4-1.04,2.25-2.84,2.25c-1.67,0-2.74-0.75-2.74-1.24c0-0.18,0.16-0.42,0.33-0.42c0.36,0,0.73,0.85,2.4,0.85
				C148.01,59.92,148.56,59.27,148.56,58.52z"/>
			<path class="st1" d="M159.41,55.22c0,1.36-0.76,1.4-1.54,1.4h-4.22v0.76c0,1.56,1.24,2.53,2.93,2.53c1.49,0,1.78-0.73,2.16-0.73
				c0.22,0,0.42,0.25,0.42,0.44c0,0.38-1,1.11-2.62,1.11c-2.22,0-3.78-1.34-3.78-3.36V55.2c0-1.78,1.51-3.27,3.34-3.27
				C157.86,51.93,159.41,53.31,159.41,55.22z M157.52,55.87c0.82,0,1.02-0.11,1.02-0.65c0-1.24-0.98-2.49-2.44-2.49
				c-1.38,0-2.45,1.11-2.45,2.4v0.75H157.52z"/>
			<path class="st1" d="M166.44,52.76c-1.24,0-2.45,1-2.45,2.65v4.8c0,0.2-0.2,0.4-0.45,0.4s-0.44-0.2-0.44-0.4V52.4
				c0-0.22,0.18-0.36,0.44-0.36c0.24,0,0.44,0.15,0.44,0.36v0.93c0.4-0.71,1.25-1.4,2.47-1.4h0.65c0.22,0,0.4,0.18,0.4,0.42
				c0,0.24-0.18,0.42-0.4,0.42H166.44z"/>
			<path class="st1" d="M169.91,52.71c-0.02-0.05-0.07-0.2-0.07-0.27c0-0.24,0.25-0.42,0.51-0.42c0.15,0,0.31,0.07,0.36,0.22
				l2.49,6.87l2.49-6.76c0.07-0.18,0.13-0.33,0.36-0.33c0.22,0,0.53,0.16,0.53,0.4c0,0.11-0.05,0.22-0.07,0.29l-2.87,7.78
				c-0.07,0.15-0.24,0.25-0.44,0.25s-0.35-0.09-0.42-0.25L169.91,52.71z"/>
			<path class="st1" d="M181.04,48.65c0,0.36-0.31,0.67-0.67,0.67c-0.4,0-0.69-0.31-0.69-0.67c0-0.35,0.29-0.64,0.69-0.64
				C180.73,48.02,181.04,48.31,181.04,48.65z M180.82,52.4v7.82c0,0.2-0.2,0.4-0.45,0.4c-0.25,0-0.44-0.2-0.44-0.4V52.4
				c0-0.22,0.18-0.36,0.44-0.36C180.62,52.03,180.82,52.18,180.82,52.4z"/>
			<path class="st1" d="M184.72,57.36v-2.07c0-1.89,1.07-3.36,3.42-3.36c1.49,0,2.45,0.69,2.45,1.11c0,0.22-0.18,0.44-0.42,0.44
				c-0.31,0-0.64-0.71-2.02-0.71c-1.65,0-2.54,0.96-2.54,2.53v2.07c0,1.56,0.87,2.53,2.56,2.53c1.47,0,1.78-0.73,2.13-0.73
				c0.22,0,0.4,0.24,0.4,0.44c0,0.44-0.98,1.13-2.56,1.13C185.82,60.72,184.72,59.29,184.72,57.36z"/>
			<path class="st1" d="M200.45,55.22c0,1.36-0.76,1.4-1.54,1.4h-4.22v0.76c0,1.56,1.24,2.53,2.93,2.53c1.49,0,1.78-0.73,2.16-0.73
				c0.22,0,0.42,0.25,0.42,0.44c0,0.38-1,1.11-2.62,1.11c-2.22,0-3.78-1.34-3.78-3.36V55.2c0-1.78,1.51-3.27,3.34-3.27
				C198.9,51.93,200.45,53.31,200.45,55.22z M198.56,55.87c0.82,0,1.02-0.11,1.02-0.65c0-1.24-0.98-2.49-2.44-2.49
				c-1.38,0-2.45,1.11-2.45,2.4v0.75H198.56z"/>
			<path class="st1" d="M213.02,55.16c0,0.96-0.84,1.8-1.82,1.8c-1,0-1.85-0.84-1.85-1.8c0-0.95,0.85-1.78,1.85-1.78
				C212.19,53.38,213.02,54.22,213.02,55.16z"/>
		</g>
	</g>
</g>
</svg>
