<?xml version="1.0" encoding="utf-8"?>
<!-- Generator: Adobe Illustrator 26.0.2, SVG Export Plug-In . SVG Version: 6.00 Build 0)  -->
<svg version="1.1" id="Camada_1" xmlns="http://www.w3.org/2000/svg" xmlns:xlink="http://www.w3.org/1999/xlink" x="0px" y="0px"
	 viewBox="0 0 30.19 30.19" style="enable-background:new 0 0 30.19 30.19;" xml:space="preserve">
<style type="text/css">
	.st0{fill:#FFFFFF;}
</style>
<g>
	<path class="st0" d="M15.17,12.28c-1.54,0-2.79,1.25-2.79,2.79c0,1.54,1.25,2.79,2.79,2.79c1.54,0,2.79-1.25,2.79-2.79
		C17.96,13.53,16.7,12.28,15.17,12.28z"/>
	<path class="st0" d="M18.63,7.89h-7.07c-2.01,0-3.65,1.64-3.65,3.65v7.07c0,2.01,1.64,3.65,3.65,3.65h7.07
		c2.01,0,3.65-1.64,3.65-3.65v-7.07C22.28,9.53,20.64,7.89,18.63,7.89z M15.17,19.43c-2.4,0-4.36-1.96-4.36-4.36
		c0-2.4,1.95-4.36,4.36-4.36c2.4,0,4.36,1.95,4.36,4.36C19.52,17.47,17.57,19.43,15.17,19.43z M19.78,11.46
		c-0.57,0-1.04-0.46-1.04-1.04c0-0.57,0.46-1.04,1.04-1.04c0.57,0,1.04,0.46,1.04,1.04C20.82,10.99,20.35,11.46,19.78,11.46z"/>
	<path class="st0" d="M15.09,0C6.76,0,0,6.76,0,15.09c0,8.34,6.76,15.09,15.09,15.09c8.34,0,15.09-6.76,15.09-15.09
		C30.19,6.76,23.43,0,15.09,0z M23.94,18.6c0,2.93-2.38,5.32-5.32,5.32h-7.07c-2.93,0-5.32-2.38-5.32-5.32v-7.07
		c0-2.93,2.38-5.32,5.32-5.32h7.07c2.93,0,5.32,2.38,5.32,5.32V18.6z"/>
</g>
</svg>
