<?xml version="1.0" encoding="utf-8"?>
<!-- Generator: Adobe Illustrator 26.0.2, SVG Export Plug-In . SVG Version: 6.00 Build 0)  -->
<svg version="1.1" id="Camada_1" xmlns="http://www.w3.org/2000/svg" xmlns:xlink="http://www.w3.org/1999/xlink" x="0px" y="0px"
	 viewBox="0 0 74.13 68.01" style="enable-background:new 0 0 74.13 68.01;" xml:space="preserve">
<style type="text/css">
	.st0{fill:#F5C64A;}
</style>
<g id="cYDrs8_00000062178940627071358880000001066207551178370433_">
	<g>
		<g>
			<path class="st0" d="M20.31,68.01c-0.76-0.13-1.55-0.17-2.29-0.4c-3.55-1.07-5.85-3.48-7.04-6.93c-1.11-3.24-0.66-6.43,0.64-9.52
				c1.15-2.74,2.9-5.07,5.13-7.02c2.23-1.94,4.1-4.19,5.83-6.58c1.51-2.08,3.01-4.18,4.58-6.21c1.2-1.54,2.63-2.86,4.39-3.78
				c1.46-0.76,3.01-1.09,4.65-1.05c1.85,0.04,3.65,0.35,5.34,1.15c1.94,0.92,3.48,2.32,4.71,4.04c1.46,2.05,2.8,4.18,4.21,6.27
				c1.48,2.2,3.19,4.2,5.19,5.96c2.54,2.24,4.57,4.85,5.79,8.05c1.13,2.98,1.45,6.01,0.24,9.02c-1.51,3.78-4.37,6.02-8.35,6.84
				c-0.24,0.05-0.47,0.1-0.71,0.15c-0.75,0-1.5,0-2.26,0c-0.73-0.12-1.46-0.2-2.17-0.38c-2.09-0.52-4.17-1.09-6.25-1.62
				c-1.78-0.45-3.59-0.76-5.43-0.82c-2.24-0.08-4.39,0.41-6.54,0.96c-1.81,0.47-3.62,0.97-5.44,1.39c-1.01,0.23-2.06,0.31-3.09,0.46
				C21.06,68.01,20.68,68.01,20.31,68.01z"/>
			<path class="st0" d="M50.85,0c0.99,0.19,1.95,0.45,2.82,0.99c1.92,1.2,3.1,2.97,3.79,5.08c1.17,3.59,0.86,7.14-0.49,10.62
				c-0.93,2.39-2.35,4.45-4.4,6.02c-1.48,1.13-3.15,1.85-5.04,1.85c-2.64,0-4.63-1.25-6.09-3.39c-1.22-1.78-1.8-3.78-1.96-5.91
				C39.19,11.48,40.09,8,42.19,4.86c1.39-2.08,3.19-3.68,5.6-4.49C48.29,0.2,48.81,0.12,49.32,0C49.83,0,50.34,0,50.85,0z"/>
			<path class="st0" d="M74.13,27.8c-0.19,0.9-0.3,1.83-0.58,2.7c-0.98,3.13-2.77,5.69-5.58,7.47c-1.57,0.99-3.27,1.56-5.14,1.43
				c-2.7-0.18-4.61-1.59-5.78-4c-0.82-1.69-1.02-3.5-0.83-5.37c0.31-3.1,1.57-5.77,3.67-8.04c1.52-1.64,3.34-2.82,5.55-3.28
				c3.67-0.76,6.86,1.07,8.12,4.65c0.28,0.8,0.39,1.66,0.57,2.5C74.13,26.51,74.13,27.16,74.13,27.8z"/>
			<path class="st0" d="M0,25.95c0.21-0.88,0.34-1.79,0.65-2.64c0.8-2.2,2.22-3.84,4.53-4.54c1.88-0.57,3.7-0.28,5.41,0.6
				c2.97,1.53,4.83,4.02,5.92,7.11c0.94,2.65,1.11,5.35,0.16,8.03c-0.87,2.45-2.48,4.18-5.11,4.76c-1.84,0.4-3.58,0.01-5.19-0.91
				c-3.31-1.89-5.16-4.84-6.05-8.47C0.18,29.31,0.11,28.71,0,28.12C0,27.4,0,26.67,0,25.95z"/>
			<path class="st0" d="M33.62,13.12c-0.03,2.88-0.54,5.25-1.9,7.38c-1.09,1.71-2.54,2.97-4.55,3.47c-2.17,0.54-4.15,0.02-5.96-1.2
				c-2.29-1.56-3.74-3.76-4.69-6.32c-0.88-2.39-1.18-4.87-0.88-7.39c0.26-2.19,0.96-4.22,2.36-5.97c2.54-3.18,6.57-3.78,9.92-1.45
				c2.51,1.74,4.03,4.18,4.93,7.05c0.25,0.79,0.43,1.6,0.56,2.42C33.55,11.89,33.58,12.7,33.62,13.12z"/>
		</g>
	</g>
</g>
</svg>
